# xmcd
#
# Track frame offsets:
#	150
#	15825
#	27975
#	38050
#	52725
#	65100
#	87650
#	101250
#	121550
#	139950
#	157725
#	183300
#
# Disc length: 2636 seconds
#
# Revision: 2
# Processed by: cddbd v1.5.1PL0 Copyright (c) Steve Scherf et al.
# Submitted via: EasyCDDAExtractor 6.0.0.1
#
DISCID=8a0a4a0c
DTITLE=Twins - Days Together
DYEAR=1990
DGENRE=Country
TTITLE0=No-Good, Full-time-Cheating, Good-for-Nothing Son of a Gun
TTITLE1=The Rivers too wide
TTITLE2=Don´t Look now
TTITLE3=South Dakota morning
TTITLE4=Bed for Roses
TTITLE5=She`ll come again
TTITLE6=I´m a beliver
TTITLE7=Ten Days Together
TTITLE8=Blue ridge Mountain rose
TTITLE9=Clyde
TTITLE10=Heading for an Ending
TTITLE11=Blue Strat Medley
EXTD=Indspillet AKS Studio i Borup, Randers Oct. 90 - Jan. 91
EXTT0=
EXTT1=
EXTT2=
EXTT3=
EXTT4=
EXTT5=
EXTT6=
EXTT7=
EXTT8=
EXTT9=
EXTT10=
EXTT11=
PLAYORDER=
